<?xml version="1.0" encoding="UTF-8" ?>

<svg width="196" height="41" viewBox="0 0 196 41" fill="none" xmlns="http://www.w3.org/2000/svg">
<path d="M22.4328 25.8477L26.2609 7.11719H30.5505L24.8083 32H20.6726L15.9387 13.8335L11.1022 32H6.94942L1.20723 7.11719H5.49678L9.35909 25.8135L14.1101 7.11719H17.7331L22.4328 25.8477ZM31.461 22.5835C31.461 20.772 31.8199 19.1427 32.5377 17.6958C33.2555 16.2375 34.2638 15.1209 35.5626 14.3462C36.8614 13.5601 38.3539 13.167 40.0401 13.167C42.5353 13.167 44.5576 13.9702 46.107 15.5767C47.6679 17.1831 48.511 19.3136 48.6363 21.9683L48.6534 22.9424C48.6534 24.7653 48.3002 26.3945 47.5939 27.8301C46.8989 29.2656 45.8963 30.3765 44.586 31.1626C43.2872 31.9487 41.7833 32.3418 40.0743 32.3418C37.4653 32.3418 35.3746 31.4759 33.8023 29.7441C32.2415 28.001 31.461 25.6825 31.461 22.7886V22.5835ZM35.6139 22.9424C35.6139 24.8451 36.0069 26.3376 36.7931 27.4199C37.5792 28.4909 38.673 29.0264 40.0743 29.0264C41.4757 29.0264 42.5637 28.4795 43.3385 27.3857C44.1246 26.292 44.5177 24.6912 44.5177 22.5835C44.5177 20.715 44.1132 19.2339 43.3043 18.1401C42.5068 17.0464 41.4187 16.4995 40.0401 16.4995C38.6843 16.4995 37.6077 17.0407 36.8102 18.123C36.0126 19.194 35.6139 20.8005 35.6139 22.9424ZM50.8628 22.5835C50.8628 20.772 51.2217 19.1427 51.9395 17.6958C52.6572 16.2375 53.6655 15.1209 54.9644 14.3462C56.2632 13.5601 57.7557 13.167 59.4419 13.167C61.937 13.167 63.9593 13.9702 65.5088 15.5767C67.0697 17.1831 67.9128 19.3136 68.0381 21.9683L68.0552 22.9424C68.0552 24.7653 67.702 26.3945 66.9956 27.8301C66.3006 29.2656 65.298 30.3765 63.9878 31.1626C62.689 31.9487 61.1851 32.3418 59.4761 32.3418C56.867 32.3418 54.7764 31.4759 53.2041 29.7441C51.6432 28.001 50.8628 25.6825 50.8628 22.7886V22.5835ZM55.0156 22.9424C55.0156 24.8451 55.4087 26.3376 56.1948 27.4199C56.981 28.4909 58.0747 29.0264 59.4761 29.0264C60.8774 29.0264 61.9655 28.4795 62.7402 27.3857C63.5264 26.292 63.9194 24.6912 63.9194 22.5835C63.9194 20.715 63.515 19.2339 62.7061 18.1401C61.9085 17.0464 60.8205 16.4995 59.4419 16.4995C58.0861 16.4995 57.0094 17.0407 56.2119 18.123C55.4144 19.194 55.0156 20.8005 55.0156 22.9424ZM72.5033 32V16.585H69.6835V13.5088H72.5033V11.8169C72.5033 9.76611 73.073 8.18245 74.2123 7.06592C75.3516 5.94938 76.9467 5.39111 78.9975 5.39111C79.7266 5.39111 80.5014 5.49365 81.3217 5.69873L81.2191 8.9458C80.7634 8.85465 80.2336 8.80908 79.6298 8.80908C77.6474 8.80908 76.6562 9.82878 76.6562 11.8682V13.5088H80.4159V16.585H76.6562V32H72.5033ZM88.9314 24.0703L87.0857 25.9673V32H82.9329V5.75H87.0857V20.8916L88.3846 19.2681L93.4944 13.5088H98.4847L91.6146 21.2163L99.2195 32H94.4173L88.9314 24.0703ZM111.734 32C111.552 31.6468 111.392 31.0715 111.256 30.2739C109.934 31.6525 108.316 32.3418 106.402 32.3418C104.545 32.3418 103.03 31.812 101.856 30.7524C100.683 29.6929 100.096 28.3826 100.096 26.8218C100.096 24.8507 100.825 23.3411 102.283 22.293C103.753 21.2334 105.849 20.7036 108.572 20.7036H111.119V19.4902C111.119 18.5332 110.851 17.7699 110.316 17.2002C109.78 16.6191 108.966 16.3286 107.872 16.3286C106.926 16.3286 106.151 16.5679 105.548 17.0464C104.944 17.5135 104.642 18.1117 104.642 18.8408H100.489C100.489 17.8268 100.825 16.8812 101.497 16.0039C102.169 15.1152 103.081 14.4202 104.232 13.9189C105.394 13.4176 106.687 13.167 108.111 13.167C110.276 13.167 112.002 13.7139 113.289 14.8076C114.577 15.89 115.238 17.4167 115.272 19.3877V27.7275C115.272 29.391 115.505 30.7183 115.972 31.7095V32H111.734ZM107.171 29.0093C107.991 29.0093 108.76 28.8099 109.478 28.4111C110.207 28.0124 110.754 27.4769 111.119 26.8047V23.3184H108.88C107.342 23.3184 106.186 23.5861 105.411 24.1216C104.636 24.6571 104.249 25.4147 104.249 26.3945C104.249 27.1921 104.511 27.8301 105.035 28.3086C105.57 28.7757 106.282 29.0093 107.171 29.0093Z" fill="white"/>
<path d="M132.503 25.5913C132.503 24.4976 132.116 23.6545 131.341 23.062C130.578 22.4696 129.193 21.8714 127.188 21.2676C125.183 20.6637 123.588 19.9915 122.403 19.251C120.136 17.8268 119.002 15.9697 119.002 13.6797C119.002 11.6745 119.817 10.0225 121.446 8.72363C123.087 7.4248 125.211 6.77539 127.82 6.77539C129.552 6.77539 131.096 7.0944 132.452 7.73242C133.808 8.37044 134.873 9.2819 135.648 10.4668C136.422 11.6403 136.81 12.9448 136.81 14.3804H132.503C132.503 13.0815 132.093 12.0675 131.273 11.3384C130.464 10.5978 129.302 10.2275 127.786 10.2275C126.373 10.2275 125.274 10.5295 124.488 11.1333C123.713 11.7371 123.326 12.5802 123.326 13.6626C123.326 14.5741 123.747 15.3374 124.59 15.9526C125.434 16.5565 126.824 17.1489 128.76 17.73C130.697 18.2996 132.252 18.9548 133.426 19.6953C134.599 20.4245 135.46 21.2676 136.006 22.2246C136.553 23.1702 136.827 24.2811 136.827 25.5571C136.827 27.6307 136.029 29.2827 134.434 30.5132C132.851 31.7323 130.697 32.3418 127.974 32.3418C126.174 32.3418 124.516 32.0114 123.001 31.3506C121.497 30.6784 120.324 29.7555 119.481 28.582C118.649 27.4085 118.233 26.0413 118.233 24.4805H122.557C122.557 25.8932 123.024 26.987 123.958 27.7617C124.892 28.5365 126.231 28.9238 127.974 28.9238C129.478 28.9238 130.606 28.6219 131.358 28.0181C132.121 27.4028 132.503 26.5939 132.503 25.5913ZM143.787 15.5254C145.143 13.9531 146.858 13.167 148.931 13.167C152.873 13.167 154.873 15.4172 154.93 19.9175V32H150.777V20.0713C150.777 18.7952 150.498 17.8952 149.939 17.3711C149.393 16.8356 148.584 16.5679 147.513 16.5679C145.849 16.5679 144.607 17.3084 143.787 18.7896V32H139.634V5.75H143.787V15.5254ZM157.84 22.5835C157.84 20.772 158.199 19.1427 158.916 17.6958C159.634 16.2375 160.642 15.1209 161.941 14.3462C163.24 13.5601 164.733 13.167 166.419 13.167C168.914 13.167 170.936 13.9702 172.486 15.5767C174.047 17.1831 174.89 19.3136 175.015 21.9683L175.032 22.9424C175.032 24.7653 174.679 26.3945 173.973 27.8301C173.278 29.2656 172.275 30.3765 170.965 31.1626C169.666 31.9487 168.162 32.3418 166.453 32.3418C163.844 32.3418 161.753 31.4759 160.181 29.7441C158.62 28.001 157.84 25.6825 157.84 22.7886V22.5835ZM161.993 22.9424C161.993 24.8451 162.386 26.3376 163.172 27.4199C163.958 28.4909 165.052 29.0264 166.453 29.0264C167.854 29.0264 168.942 28.4795 169.717 27.3857C170.503 26.292 170.896 24.6912 170.896 22.5835C170.896 20.715 170.492 19.2339 169.683 18.1401C168.885 17.0464 167.797 16.4995 166.419 16.4995C165.063 16.4995 163.986 17.0407 163.189 18.123C162.391 19.194 161.993 20.8005 161.993 22.9424ZM194.212 22.9424C194.212 25.8021 193.562 28.0864 192.263 29.7954C190.965 31.493 189.221 32.3418 187.034 32.3418C185.006 32.3418 183.382 31.6753 182.163 30.3423V39.1094H178.011V13.5088H181.839L182.01 15.3887C183.229 13.9076 184.886 13.167 186.983 13.167C189.239 13.167 191.005 14.0101 192.281 15.6963C193.568 17.3711 194.212 19.701 194.212 22.686V22.9424ZM190.076 22.5835C190.076 20.7378 189.706 19.2738 188.965 18.1914C188.236 17.109 187.188 16.5679 185.821 16.5679C184.123 16.5679 182.904 17.2686 182.163 18.6699V26.873C182.915 28.3086 184.146 29.0264 185.855 29.0264C187.176 29.0264 188.207 28.4966 188.948 27.437C189.7 26.366 190.076 24.7482 190.076 22.5835Z" fill="#03A9F5"/>
</svg>
