<?xml version="1.0" encoding="UTF-8" ?>

<svg width="39" height="34" viewBox="0 0 39 34" fill="none" xmlns="http://www.w3.org/2000/svg">
<path d="M1 1L6.99993 25.727H9.90899L15.7271 5.90903L21.1816 25.727H24.0906L30.0906 1H26.9997L22.4543 21.1816L16.9998 1H14.2726L8.63628 21.1816L4.27269 1H1Z" fill="white" stroke="white"/>
<path d="M37.8144 16.5538C37.4857 10.56 32.72 9.72754 29.9263 9.72754C24.339 9.72754 22.5782 12.8909 22.3669 15.8878C22.0383 20.5497 28.1734 22.2146 29.9263 22.7141C35.185 23.8795 35.185 26.5434 34.5277 28.5414C33.8704 30.5393 30.748 30.7058 27.79 30.2063C25.4893 29.5403 24.5837 28.2554 24.0907 26.091H21.1816C21.1816 30.0868 24.832 31.9268 26.1466 32.3707C28.283 33.0922 32.72 33.4383 34.8564 32.0378C37.1571 30.5295 37.6374 29.2074 37.8144 28.0419C38.6739 22.3811 33.3774 20.8827 33.3774 20.8827C29.269 19.5507 28.3487 19.2177 27.6257 18.8847C24.0103 17.2198 25.1607 13.0574 28.1187 12.3914C29.5977 12.0584 31.4053 12.2249 32.3914 12.5579C34.9504 13.4222 34.8564 16.0543 34.8564 16.5538H37.8144Z" fill="#03A9F5" stroke="#03A9F5"/>
</svg>
