<?xml version="1.0" encoding="UTF-8" ?>

<svg width="254" height="41" viewBox="0 0 254 41" fill="none" xmlns="http://www.w3.org/2000/svg">
<g clip-path="url(#clip0)">
<path d="M0 7L5.99993 31.727H8.90899L14.7271 11.909L20.1816 31.727H23.0906L29.0906 7H25.9997L21.4543 27.1816L15.9998 7H13.2726L7.63628 27.1816L3.27269 7H0Z" fill="white" stroke="white"/>
<path d="M36.8144 22.5538C36.4857 16.56 31.72 15.7275 28.9263 15.7275C23.339 15.7275 21.5782 18.8909 21.3669 21.8878C21.0383 26.5497 27.1734 28.2146 28.9263 28.7141C34.185 29.8795 34.185 32.5434 33.5277 34.5414C32.8704 36.5393 29.748 36.7058 26.79 36.2063C24.4893 35.5403 23.5837 34.2554 23.0907 32.091H20.1816C20.1816 36.0868 23.832 37.9268 25.1466 38.3707C27.283 39.0922 31.72 39.4383 33.8564 38.0378C36.1571 36.5295 36.6374 35.2074 36.8144 34.0419C37.6739 28.3811 32.3774 26.8827 32.3774 26.8827C28.269 25.5507 27.3487 25.2177 26.6257 24.8847C23.0103 23.2198 24.1607 19.0574 27.1187 18.3914C28.5977 18.0584 30.4053 18.2249 31.3914 18.5579C33.9504 19.4222 33.8564 22.0543 33.8564 22.5538H36.8144Z" fill="#03A9F5" stroke="#03A9F5"/>
<path d="M80.4328 25.8477L84.2609 7.11719H88.5505L82.8083 32H78.6726L73.9387 13.8335L69.1022 32H64.9494L59.2072 7.11719H63.4968L67.3591 25.8135L72.1101 7.11719H75.7331L80.4328 25.8477ZM89.461 22.5835C89.461 20.772 89.8199 19.1427 90.5377 17.6958C91.2555 16.2375 92.2638 15.1209 93.5626 14.3462C94.8614 13.5601 96.3539 13.167 98.0401 13.167C100.535 13.167 102.558 13.9702 104.107 15.5767C105.668 17.1831 106.511 19.3136 106.636 21.9683L106.653 22.9424C106.653 24.7653 106.3 26.3945 105.594 27.8301C104.899 29.2656 103.896 30.3765 102.586 31.1626C101.287 31.9487 99.7833 32.3418 98.0743 32.3418C95.4653 32.3418 93.3746 31.4759 91.8023 29.7441C90.2415 28.001 89.461 25.6825 89.461 22.7886V22.5835ZM93.6139 22.9424C93.6139 24.8451 94.0069 26.3376 94.7931 27.4199C95.5792 28.4909 96.673 29.0264 98.0743 29.0264C99.4757 29.0264 100.564 28.4795 101.338 27.3857C102.125 26.292 102.518 24.6912 102.518 22.5835C102.518 20.715 102.113 19.2339 101.304 18.1401C100.507 17.0464 99.4187 16.4995 98.0401 16.4995C96.6843 16.4995 95.6077 17.0407 94.8102 18.123C94.0126 19.194 93.6139 20.8005 93.6139 22.9424ZM108.863 22.5835C108.863 20.772 109.222 19.1427 109.939 17.6958C110.657 16.2375 111.666 15.1209 112.964 14.3462C114.263 13.5601 115.756 13.167 117.442 13.167C119.937 13.167 121.959 13.9702 123.509 15.5767C125.07 17.1831 125.913 19.3136 126.038 21.9683L126.055 22.9424C126.055 24.7653 125.702 26.3945 124.996 27.8301C124.301 29.2656 123.298 30.3765 121.988 31.1626C120.689 31.9487 119.185 32.3418 117.476 32.3418C114.867 32.3418 112.776 31.4759 111.204 29.7441C109.643 28.001 108.863 25.6825 108.863 22.7886V22.5835ZM113.016 22.9424C113.016 24.8451 113.409 26.3376 114.195 27.4199C114.981 28.4909 116.075 29.0264 117.476 29.0264C118.877 29.0264 119.965 28.4795 120.74 27.3857C121.526 26.292 121.919 24.6912 121.919 22.5835C121.919 20.715 121.515 19.2339 120.706 18.1401C119.909 17.0464 118.82 16.4995 117.442 16.4995C116.086 16.4995 115.009 17.0407 114.212 18.123C113.414 19.194 113.016 20.8005 113.016 22.9424ZM130.503 32V16.585H127.684V13.5088H130.503V11.8169C130.503 9.76611 131.073 8.18245 132.212 7.06592C133.352 5.94938 134.947 5.39111 136.997 5.39111C137.727 5.39111 138.501 5.49365 139.322 5.69873L139.219 8.9458C138.763 8.85465 138.234 8.80908 137.63 8.80908C135.647 8.80908 134.656 9.82878 134.656 11.8682V13.5088H138.416V16.585H134.656V32H130.503ZM146.931 24.0703L145.086 25.9673V32H140.933V5.75H145.086V20.8916L146.385 19.2681L151.494 13.5088H156.485L149.615 21.2163L157.22 32H152.417L146.931 24.0703ZM169.734 32C169.552 31.6468 169.392 31.0715 169.256 30.2739C167.934 31.6525 166.316 32.3418 164.402 32.3418C162.545 32.3418 161.03 31.812 159.856 30.7524C158.683 29.6929 158.096 28.3826 158.096 26.8218C158.096 24.8507 158.825 23.3411 160.283 22.293C161.753 21.2334 163.849 20.7036 166.572 20.7036H169.119V19.4902C169.119 18.5332 168.851 17.7699 168.316 17.2002C167.78 16.6191 166.966 16.3286 165.872 16.3286C164.926 16.3286 164.151 16.5679 163.548 17.0464C162.944 17.5135 162.642 18.1117 162.642 18.8408H158.489C158.489 17.8268 158.825 16.8812 159.497 16.0039C160.169 15.1152 161.081 14.4202 162.232 13.9189C163.394 13.4176 164.687 13.167 166.111 13.167C168.276 13.167 170.002 13.7139 171.289 14.8076C172.577 15.89 173.238 17.4167 173.272 19.3877V27.7275C173.272 29.391 173.505 30.7183 173.972 31.7095V32H169.734ZM165.171 29.0093C165.991 29.0093 166.76 28.8099 167.478 28.4111C168.207 28.0124 168.754 27.4769 169.119 26.8047V23.3184H166.88C165.342 23.3184 164.186 23.5861 163.411 24.1216C162.636 24.6571 162.249 25.4147 162.249 26.3945C162.249 27.1921 162.511 27.8301 163.035 28.3086C163.57 28.7757 164.282 29.0093 165.171 29.0093Z" fill="white"/>
<path d="M190.503 25.5913C190.503 24.4976 190.116 23.6545 189.341 23.062C188.578 22.4696 187.193 21.8714 185.188 21.2676C183.183 20.6637 181.588 19.9915 180.403 19.251C178.136 17.8268 177.002 15.9697 177.002 13.6797C177.002 11.6745 177.817 10.0225 179.446 8.72363C181.087 7.4248 183.211 6.77539 185.82 6.77539C187.552 6.77539 189.096 7.0944 190.452 7.73242C191.808 8.37044 192.873 9.2819 193.648 10.4668C194.422 11.6403 194.81 12.9448 194.81 14.3804H190.503C190.503 13.0815 190.093 12.0675 189.273 11.3384C188.464 10.5978 187.302 10.2275 185.786 10.2275C184.373 10.2275 183.274 10.5295 182.488 11.1333C181.713 11.7371 181.326 12.5802 181.326 13.6626C181.326 14.5741 181.747 15.3374 182.59 15.9526C183.434 16.5565 184.824 17.1489 186.76 17.73C188.697 18.2996 190.252 18.9548 191.426 19.6953C192.599 20.4245 193.46 21.2676 194.006 22.2246C194.553 23.1702 194.827 24.2811 194.827 25.5571C194.827 27.6307 194.029 29.2827 192.434 30.5132C190.851 31.7323 188.697 32.3418 185.974 32.3418C184.174 32.3418 182.516 32.0114 181.001 31.3506C179.497 30.6784 178.324 29.7555 177.481 28.582C176.649 27.4085 176.233 26.0413 176.233 24.4805H180.557C180.557 25.8932 181.024 26.987 181.958 27.7617C182.892 28.5365 184.231 28.9238 185.974 28.9238C187.478 28.9238 188.606 28.6219 189.358 28.0181C190.121 27.4028 190.503 26.5939 190.503 25.5913ZM201.787 15.5254C203.143 13.9531 204.858 13.167 206.931 13.167C210.873 13.167 212.873 15.4172 212.93 19.9175V32H208.777V20.0713C208.777 18.7952 208.498 17.8952 207.939 17.3711C207.393 16.8356 206.584 16.5679 205.513 16.5679C203.849 16.5679 202.607 17.3084 201.787 18.7896V32H197.634V5.75H201.787V15.5254ZM215.84 22.5835C215.84 20.772 216.199 19.1427 216.916 17.6958C217.634 16.2375 218.642 15.1209 219.941 14.3462C221.24 13.5601 222.733 13.167 224.419 13.167C226.914 13.167 228.936 13.9702 230.486 15.5767C232.047 17.1831 232.89 19.3136 233.015 21.9683L233.032 22.9424C233.032 24.7653 232.679 26.3945 231.973 27.8301C231.278 29.2656 230.275 30.3765 228.965 31.1626C227.666 31.9487 226.162 32.3418 224.453 32.3418C221.844 32.3418 219.753 31.4759 218.181 29.7441C216.62 28.001 215.84 25.6825 215.84 22.7886V22.5835ZM219.993 22.9424C219.993 24.8451 220.386 26.3376 221.172 27.4199C221.958 28.4909 223.052 29.0264 224.453 29.0264C225.854 29.0264 226.942 28.4795 227.717 27.3857C228.503 26.292 228.896 24.6912 228.896 22.5835C228.896 20.715 228.492 19.2339 227.683 18.1401C226.885 17.0464 225.797 16.4995 224.419 16.4995C223.063 16.4995 221.986 17.0407 221.189 18.123C220.391 19.194 219.993 20.8005 219.993 22.9424ZM252.212 22.9424C252.212 25.8021 251.562 28.0864 250.263 29.7954C248.965 31.493 247.221 32.3418 245.034 32.3418C243.006 32.3418 241.382 31.6753 240.163 30.3423V39.1094H236.011V13.5088H239.839L240.01 15.3887C241.229 13.9076 242.886 13.167 244.983 13.167C247.239 13.167 249.005 14.0101 250.281 15.6963C251.568 17.3711 252.212 19.701 252.212 22.686V22.9424ZM248.076 22.5835C248.076 20.7378 247.706 19.2738 246.965 18.1914C246.236 17.109 245.188 16.5679 243.821 16.5679C242.123 16.5679 240.904 17.2686 240.163 18.6699V26.873C240.915 28.3086 242.146 29.0264 243.855 29.0264C245.176 29.0264 246.207 28.4966 246.948 27.437C247.7 26.366 248.076 24.7482 248.076 22.5835Z" fill="#03A9F5"/>
</g>
<defs>
<clipPath id="clip0">
<rect width="254" height="41" fill="white"/>
</clipPath>
</defs>
</svg>
